<svg width="248" height="84" viewBox="0 0 248 84" fill="none" xmlns="http://www.w3.org/2000/svg">
<path d="M246.54 78.3105H242.052C242.075 78.8105 242.247 79.2012 242.568 79.4824C242.892 79.7598 243.32 79.8984 243.851 79.8984C244.511 79.8984 245.019 79.7207 245.374 79.3652L245.937 80.4961C245.409 80.9102 244.642 81.1172 243.634 81.1172C242.681 81.1172 241.925 80.8418 241.367 80.291C240.808 79.7402 240.529 78.9531 240.529 77.9297C240.529 76.9336 240.835 76.1309 241.449 75.5215C242.062 74.9082 242.794 74.6016 243.646 74.6016C244.544 74.6016 245.271 74.873 245.825 75.416C246.38 75.9551 246.658 76.6484 246.658 77.4961C246.658 77.6953 246.618 77.9668 246.54 78.3105ZM242.111 77.209H245.181C245.083 76.2871 244.575 75.8262 243.658 75.8262C242.833 75.8262 242.318 76.2871 242.111 77.209Z" fill="#2FA8D5"/>
<path d="M236.682 81H235.217V77.209L231.449 81.1465H231.051V74.7246H232.516V78.5156L236.283 74.5781H236.682V81Z" fill="#2FA8D5"/>
<path d="M226.829 81H225.364V78.3105H222.762V81H221.297V74.7246H222.762V77.0977H225.364V74.7246H226.829V81Z" fill="#2FA8D5"/>
<path d="M217.351 78.3105H212.863C212.886 78.8105 213.058 79.2012 213.378 79.4824C213.702 79.7598 214.13 79.8984 214.661 79.8984C215.321 79.8984 215.829 79.7207 216.185 79.3652L216.747 80.4961C216.22 80.9102 215.452 81.1172 214.445 81.1172C213.491 81.1172 212.736 80.8418 212.177 80.291C211.618 79.7402 211.339 78.9531 211.339 77.9297C211.339 76.9336 211.646 76.1309 212.259 75.5215C212.872 74.9082 213.605 74.6016 214.456 74.6016C215.355 74.6016 216.081 74.873 216.636 75.416C217.191 75.9551 217.468 76.6484 217.468 77.4961C217.468 77.6953 217.429 77.9668 217.351 78.3105ZM212.921 77.209H215.991C215.894 76.2871 215.386 75.8262 214.468 75.8262C213.644 75.8262 213.128 76.2871 212.921 77.209Z" fill="#2FA8D5"/>
<path d="M207.492 81H206.062V75.8789H204.515C204.484 76.7539 204.385 77.5684 204.217 78.3223C204.053 79.0762 203.826 79.6582 203.537 80.0684C203.248 80.4746 202.937 80.7441 202.605 80.877C202.277 81.0059 201.861 81.0703 201.357 81.0703V79.7754C201.748 79.7754 202.072 79.6426 202.33 79.377C202.588 79.1074 202.807 78.582 202.986 77.8008C203.166 77.0156 203.256 76.1211 203.256 75.1172V74.7246H207.492V81Z" fill="#2FA8D5"/>
<path d="M196.338 80.3789C196.206 80.5938 195.967 80.7715 195.624 80.9121C195.28 81.0488 194.942 81.1172 194.61 81.1172C193.922 81.1172 193.389 80.9473 193.01 80.6074C192.631 80.2676 192.442 79.791 192.442 79.1777C192.442 78.4863 192.704 77.9258 193.227 77.4961C193.75 77.0625 194.532 76.8457 195.571 76.8457C195.739 76.8457 195.944 76.8789 196.186 76.9453C196.186 76.1992 195.721 75.8262 194.791 75.8262C194.245 75.8262 193.78 75.918 193.397 76.1016L193.086 74.9766C193.583 74.7266 194.182 74.6016 194.885 74.6016C195.854 74.6016 196.557 74.8262 196.995 75.2754C197.436 75.7207 197.657 76.541 197.657 77.7363V79.0781C197.657 79.9141 197.825 80.4395 198.161 80.6543C198.047 80.8574 197.92 80.9844 197.78 81.0352C197.639 81.0898 197.463 81.1172 197.252 81.1172C197.045 81.1172 196.858 81.043 196.69 80.8945C196.522 80.7422 196.405 80.5703 196.338 80.3789ZM196.198 78.0469C195.944 78 195.754 77.9766 195.629 77.9766C194.477 77.9766 193.901 78.3516 193.901 79.1016C193.901 79.6719 194.225 79.957 194.874 79.957C195.756 79.957 196.198 79.5176 196.198 78.6387V78.0469Z" fill="#2FA8D5"/>
<path d="M189.093 83.1855H187.833V81H183.427V83.1855H182.167V79.8457H182.765C183.187 79.2832 183.511 78.6172 183.737 77.8477C183.964 77.0781 184.077 76.3047 184.077 75.5273V74.7246H188.226V79.8457H189.093V83.1855ZM186.872 79.8457V75.8613H185.29C185.212 77.541 184.839 78.8691 184.171 79.8457H186.872Z" fill="#2FA8D5"/>
<path d="M176.41 82.0078C176.254 82.4258 175.924 82.7715 175.42 83.0449C174.916 83.3223 174.312 83.4609 173.609 83.4609V82.166C174.738 82.166 175.303 81.8809 175.303 81.3105C175.303 80.9395 175.146 80.3672 174.834 79.5938L172.865 74.7246H174.388L176.094 79.0547L177.64 74.7246H179.158L176.41 82.0078Z" fill="#2FA8D5"/>
<path d="M163.698 77.8418C163.698 76.8926 163.971 76.1152 164.518 75.5098C165.069 74.9043 165.799 74.6016 166.709 74.6016C167.663 74.6016 168.403 74.8945 168.93 75.4805C169.457 76.0664 169.721 76.8535 169.721 77.8418C169.721 78.8691 169.446 79.6719 168.895 80.25C168.348 80.8281 167.62 81.1172 166.709 81.1172C165.764 81.1172 165.026 80.8223 164.495 80.2324C163.963 79.6387 163.698 78.8418 163.698 77.8418ZM165.221 77.8418C165.221 79.2285 165.717 79.9219 166.709 79.9219C167.159 79.9219 167.518 79.7461 167.788 79.3945C168.061 79.0391 168.198 78.5215 168.198 77.8418C168.198 76.4824 167.702 75.8027 166.709 75.8027C166.256 75.8027 165.895 75.9805 165.625 76.3359C165.356 76.6914 165.221 77.1934 165.221 77.8418Z" fill="#2FA8D5"/>
<path d="M160.314 81H158.814C158.497 79.2266 158.329 78.2363 158.31 78.0293C158.294 77.8223 158.286 77.6797 158.286 77.6016H158.228C158.146 77.875 158.073 78.0723 158.011 78.1934L156.534 81.1172H156.019L154.929 78.9785C154.64 78.4082 154.472 78.0605 154.425 77.9355C154.378 77.8105 154.341 77.6992 154.314 77.6016H154.255C154.255 77.8633 154.218 78.2129 154.144 78.6504L153.751 81H152.321L153.511 74.6016H154.073L156.353 79.0781L158.597 74.6016H159.13L160.314 81Z" fill="#2FA8D5"/>
<path d="M142.627 76.9688C142.97 76.9375 143.341 76.9219 143.74 76.9219C144.509 76.9219 145.107 77.1035 145.533 77.4668C145.963 77.8262 146.177 78.3398 146.177 79.0078C146.177 80.3359 145.361 81 143.728 81H141.197V74.7246H142.627V76.9688ZM142.627 79.8574C142.951 79.877 143.275 79.8867 143.599 79.8867C144.037 79.8867 144.334 79.7988 144.49 79.623C144.646 79.4434 144.724 79.2148 144.724 78.9375C144.724 78.6797 144.629 78.4648 144.437 78.293C144.25 78.1211 143.974 78.0352 143.611 78.0352C143.404 78.0352 143.076 78.0469 142.627 78.0703V79.8574ZM148.568 81H147.127V74.7246H148.568V81Z" fill="#2FA8D5"/>
<path d="M137.455 83.1855H136.196V81H131.789V83.1855H130.53V79.8457H131.127C131.549 79.2832 131.873 78.6172 132.1 77.8477C132.326 77.0781 132.44 76.3047 132.44 75.5273V74.7246H136.588V79.8457H137.455V83.1855ZM135.235 79.8457V75.8613H133.653C133.575 77.541 133.201 78.8691 132.534 79.8457H135.235Z" fill="#2FA8D5"/>
<path d="M114.307 81H112.842V77.209L109.074 81.1465H108.676V74.7246H110.141V78.5156L113.908 74.5781H114.307V81Z" fill="#2FA8D5"/>
<path d="M91.9259 81H90.4845V78.6211H90.0978C89.0002 78.6211 88.3849 79.0938 88.2521 80.0391C88.1584 80.7266 87.7463 81.0703 87.0158 81.0703C86.8088 81.0703 86.6095 81.0586 86.4181 81.0352V79.834C86.465 79.8496 86.549 79.8574 86.6701 79.8574C86.8459 79.8574 86.9572 79.7422 87.0041 79.5117C87.0744 79.1758 87.2267 78.8867 87.4611 78.6445C87.6955 78.4023 87.9865 78.2363 88.3342 78.1465C87.3185 77.959 86.8107 77.4141 86.8107 76.5117C86.8107 75.9805 87.008 75.5391 87.4025 75.1875C87.797 74.832 88.4435 74.6543 89.342 74.6543C89.8693 74.6543 90.7306 74.6855 91.9259 74.748V81ZM90.4845 77.5312V75.8027C90.172 75.7715 89.7912 75.7559 89.342 75.7559C88.9826 75.7559 88.7189 75.8359 88.5509 75.9961C88.383 76.1523 88.299 76.3555 88.299 76.6055C88.299 76.8711 88.4103 77.0898 88.633 77.2617C88.8595 77.4297 89.1681 77.5156 89.5588 77.5195L90.4845 77.5312Z" fill="#2FA8D5"/>
<path d="M82.5594 81H81.0945V77.209L77.327 81.1465H76.9285V74.7246H78.3934V78.5156L82.1609 74.5781H82.5594V81Z" fill="#2FA8D5"/>
<path d="M73.1811 83.1855H71.8979V81H67.0581V74.7246H68.5112V79.7988H70.8608V74.7246H72.3139V79.7988H73.1811V83.1855Z" fill="#2FA8D5"/>
<path d="M62.8302 81H61.3887V78.6211H61.002C59.9044 78.6211 59.2891 79.0938 59.1563 80.0391C59.0626 80.7266 58.6505 81.0703 57.92 81.0703C57.713 81.0703 57.5137 81.0586 57.3223 81.0352V79.834C57.3692 79.8496 57.4532 79.8574 57.5743 79.8574C57.7501 79.8574 57.8614 79.7422 57.9083 79.5117C57.9786 79.1758 58.1309 78.8867 58.3653 78.6445C58.5997 78.4023 58.8907 78.2363 59.2384 78.1465C58.2227 77.959 57.7149 77.4141 57.7149 76.5117C57.7149 75.9805 57.9122 75.5391 58.3067 75.1875C58.7012 74.832 59.3477 74.6543 60.2462 74.6543C60.7735 74.6543 61.6348 74.6855 62.8302 74.748V81ZM61.3887 77.5312V75.8027C61.0762 75.7715 60.6954 75.7559 60.2462 75.7559C59.8868 75.7559 59.6231 75.8359 59.4552 75.9961C59.2872 76.1523 59.2032 76.3555 59.2032 76.6055C59.2032 76.8711 59.3145 77.0898 59.5372 77.2617C59.7637 77.4297 60.0723 77.5156 60.463 77.5195L61.3887 77.5312Z" fill="#2FA8D5"/>
<path d="M53.4636 81H52.0339V75.8789H50.487C50.4558 76.7539 50.3562 77.5684 50.1882 78.3223C50.0242 79.0762 49.7976 79.6582 49.5085 80.0684C49.2195 80.4746 48.9089 80.7441 48.5769 80.877C48.2488 81.0059 47.8327 81.0703 47.3288 81.0703V79.7754C47.7195 79.7754 48.0437 79.6426 48.3015 79.377C48.5593 79.1074 48.7781 78.582 48.9577 77.8008C49.1374 77.0156 49.2273 76.1211 49.2273 75.1172V74.7246H53.4636V81Z" fill="#2FA8D5"/>
<path d="M43.6283 81H42.1634V77.209L38.3959 81.1465H37.9974V74.7246H39.4623V78.5156L43.2298 74.5781H43.6283V81Z" fill="#2FA8D5"/>
<path d="M32.3808 75.9609V81H30.9043V75.9609H29.1054V74.7246H34.1797V75.9609H32.3808Z" fill="#2FA8D5"/>
<path d="M25.2878 81H23.8229V78.3105H21.2214V81H19.7565V74.7246H21.2214V77.0977H23.8229V74.7246H25.2878V81Z" fill="#2FA8D5"/>
<path d="M15.8099 78.3105H11.3216C11.345 78.8105 11.5169 79.2012 11.8372 79.4824C12.1614 79.7598 12.5892 79.8984 13.1204 79.8984C13.7806 79.8984 14.2884 79.7207 14.6438 79.3652L15.2063 80.4961C14.679 80.9102 13.9114 81.1172 12.9036 81.1172C11.9505 81.1172 11.1946 80.8418 10.636 80.291C10.0774 79.7402 9.79814 78.9531 9.79814 77.9297C9.79814 76.9336 10.1048 76.1309 10.7181 75.5215C11.3313 74.9082 12.0638 74.6016 12.9153 74.6016C13.8138 74.6016 14.5403 74.873 15.095 75.416C15.6497 75.9551 15.927 76.6484 15.927 77.4961C15.927 77.6953 15.888 77.9668 15.8099 78.3105ZM11.3802 77.209H14.4505C14.3528 76.2871 13.845 75.8262 12.927 75.8262C12.1028 75.8262 11.5872 76.2871 11.3802 77.209Z" fill="#2FA8D5"/>
<path d="M5.05461 77.6543C5.87101 77.9473 6.27922 78.4746 6.27922 79.2363C6.27922 79.7754 6.07219 80.2051 5.65812 80.5254C5.24406 80.8418 4.62687 81 3.80656 81H0.999921V74.7363C2.1757 74.6816 3.08781 74.6543 3.73625 74.6543C4.4589 74.6543 5.0175 74.8125 5.41203 75.1289C5.80656 75.4414 6.00383 75.8594 6.00383 76.3828C6.00383 76.6484 5.91984 76.8984 5.75187 77.1328C5.58781 77.3633 5.35539 77.5371 5.05461 77.6543ZM2.41789 77.1738C2.57023 77.1816 2.97844 77.1855 3.6425 77.1855C4.28312 77.1855 4.60344 76.9414 4.60344 76.4531C4.60344 76.2422 4.52336 76.0742 4.3632 75.9492C4.20695 75.8203 3.99015 75.7559 3.71281 75.7559C3.19719 75.7559 2.76555 75.7715 2.41789 75.8027V77.1738ZM2.41789 79.8574C2.9257 79.877 3.35344 79.8867 3.70109 79.8867C4.46281 79.8867 4.84367 79.6094 4.84367 79.0547C4.84367 78.7773 4.7343 78.5703 4.51555 78.4336C4.2968 78.2969 4.02531 78.2285 3.70109 78.2285L2.41789 78.2402V79.8574Z" fill="#2FA8D5"/>
<path d="M183.098 7.40763C182.006 8.15086 181.096 9.07989 181.096 9.51344C181.096 9.94699 180.126 10.9999 178.974 11.9289C177.336 13.1676 176.851 14.0347 176.851 15.4592C176.851 16.5122 176.487 17.8128 176.062 18.3083C175.638 18.8657 174.91 20.538 174.485 22.0863C174.061 23.6347 173.454 25.6786 173.09 26.7315C172.787 27.7225 172.302 29.5805 171.998 30.7573C171.089 35.1547 169.208 39.1186 167.813 39.7999C167.025 40.2335 166.115 40.9147 165.872 41.4102C165.023 42.7728 165.266 46.1173 166.297 46.7367C167.025 47.1702 167.085 47.6038 166.6 48.7806C165.509 51.6296 163.992 59.5573 164.235 61.7251L164.417 63.8928L165.751 62.4064C166.964 61.0438 167.51 59.4335 168.966 52.7444C170.361 46.1173 171.998 44.5689 179.58 42.2773C181.582 41.658 183.826 40.9147 184.554 40.5431C186.98 39.3044 187.222 40.2335 187.101 50.4528C187.101 56.2748 187.283 60.2386 187.647 60.3625C187.95 60.4244 188.375 60.0528 188.618 59.4954C189.103 58.1948 190.983 42.7109 190.862 40.7909C190.862 39.9857 191.104 38.8089 191.468 38.1276C191.832 37.3844 191.893 36.5793 191.529 36.1457C191.226 35.7122 190.983 31.9341 190.922 27.6605C190.801 16.5741 190.619 15.8309 187.708 14.1586L185.282 12.7341L185.706 9.32763C185.888 7.46957 185.827 5.98311 185.585 6.04505C185.282 6.04505 184.129 6.6644 183.098 7.40763ZM184.311 21.2193C185.039 22.0863 185.888 23.8205 186.191 25.0593C186.919 28.5276 187.283 35.2786 186.677 36.2076C186.131 37.0128 176.002 38.4373 174.607 37.9418C173.697 37.5702 173.515 35.7122 174.425 35.7122C174.788 35.7122 175.031 35.0309 175.031 34.2257C175.031 33.3586 175.274 32.5534 175.577 32.3676C175.88 32.1818 176.305 31.0051 176.487 29.8283C176.729 28.6515 177.154 27.6605 177.457 27.6605C177.821 27.6605 178.064 27.2889 178.064 26.8554C178.064 25.2451 181.096 19.6089 182.006 19.6089C182.492 19.6089 183.523 20.3522 184.311 21.2193Z" fill="#2FA8D5"/>
<path d="M229.013 7.65536C225.98 8.64633 225.374 9.32762 225.374 11.6192C225.374 14.4683 224.1 15.1496 221.734 13.4154C220.825 12.7341 219.854 12.1767 219.672 12.1767C219.43 12.1767 218.277 11.4954 217.003 10.6902C214.577 9.14181 207.42 7.77923 205.601 8.52246C203.842 9.20375 201.112 11.9289 201.112 12.9199C201.112 13.4154 200.809 14.0967 200.445 14.4683C199.96 14.9638 199.96 15.2734 200.445 15.5212C200.87 15.8308 201.112 19.547 201.112 26.4218C201.112 36.827 201.112 36.8889 199.596 38.0657C197.837 39.4902 197.655 41.3483 199.05 42.587C199.899 43.2683 199.96 44.4451 199.657 50.5767C199.232 58.1328 199.778 60.796 201.294 58.3186C201.658 57.6373 202.325 55.036 202.75 52.4967C203.66 46.6128 204.084 46.1793 206.935 48.4709C208.148 49.4618 210.028 50.8864 211.181 51.6915C212.333 52.4347 213.243 53.3638 213.243 53.6735C213.243 54.0451 213.607 54.2928 214.031 54.2928C214.517 54.2928 215.366 54.9122 216.033 55.5935C216.64 56.3367 217.731 57.1418 218.398 57.4515C219.672 58.0709 221.856 59.3715 222.341 59.867C223.129 60.6722 227.254 62.4683 227.557 62.1586C228.224 61.4773 227.193 57.3896 226.344 57.3896C225.92 57.3896 224.949 56.7083 224.161 55.8412C223.372 54.9741 222.523 54.2928 222.22 54.2928C221.916 54.2928 219.308 51.9393 216.397 49.0283C213.486 46.1173 210.695 43.6399 210.21 43.4541C208.997 43.0825 207.178 39.9238 207.178 38.3754C207.178 37.5083 207.905 36.8889 209.604 36.3315C210.938 35.898 212.333 35.1547 212.697 34.6592C213.061 34.2257 213.667 33.8541 213.971 33.8541C214.274 33.8541 215.244 33.1728 216.154 32.3057C217.064 31.4386 218.035 30.7573 218.277 30.7573C218.944 30.7573 221.856 28.5276 224.282 26.1741C226.101 24.3779 226.162 24.2541 225.798 19.8567L225.374 15.3973L229.316 14.4063C235.563 12.796 235.26 12.5483 234.836 19.1134C234.654 22.2721 234.229 26.6696 233.865 28.8992C233.319 32.987 232.895 58.5044 233.441 59.0618C233.623 59.1857 234.29 58.938 235.018 58.5044C236.17 57.8231 236.291 57.0799 236.352 52.1251C236.413 49.0902 236.534 45.9935 236.655 45.3122C236.777 44.6309 237.14 41.4102 237.504 38.1896C237.808 34.9689 238.354 31.3147 238.717 30.138C239.324 27.8463 239.749 25.4309 240.355 20.6618C240.658 18.1844 240.476 17.3173 239.385 15.8928C237.201 12.796 237.626 11.9908 241.326 12.3625C243.024 12.4863 245.086 12.8579 245.875 13.1057C247.088 13.5392 247.209 13.3534 247.209 11.0618C247.209 9.14181 246.906 8.33665 246.057 7.84117C244.904 7.22181 230.772 7.03601 229.013 7.65536ZM214.881 16.2025C220.885 18.9896 222.826 23.0154 219.551 25.9263C218.702 26.7315 217.185 28.0941 216.215 29.0231C215.184 30.0141 213.971 30.7573 213.546 30.7573C213.061 30.7573 212.576 31.0051 212.394 31.3147C211.909 32.1199 207.299 34.4734 206.268 34.4734C205.54 34.4734 205.419 33.7922 205.722 30.8812C205.964 28.9612 206.328 27.1031 206.632 26.7315C206.935 26.4218 207.178 24.6876 207.178 22.8915V19.547L205.055 19.9805C202.992 20.3521 202.932 20.2902 202.932 18.556C202.932 16.7599 204.145 15.0876 205.964 14.5302C207.663 13.9728 211.727 14.716 214.881 16.2025Z" fill="#2FA8D5"/>
<path fill-rule="evenodd" clip-rule="evenodd" d="M0.762695 0H44.7627V32.5V65H0.762695V32.5V0ZM17.7627 12H2.7627L15.7627 51H29.7627L42.7627 12H28.7627L23 34L17.7627 12Z" fill="#2FA8D5"/>
<path fill-rule="evenodd" clip-rule="evenodd" d="M47.9999 0H77.9999V65H47.9999V0ZM75.9999 12H50.9999V51H75.9999V40H64.9999V36H74.9999V27H64.9999V23H75.9999V12Z" fill="#2FA8D5"/>
<path fill-rule="evenodd" clip-rule="evenodd" d="M80.7911 0V65H124L123.791 0H80.7911ZM98 12H84.5V51H98V33L108 51H121V12H108V30L98 12Z" fill="#2FA8D5"/>
<path fill-rule="evenodd" clip-rule="evenodd" d="M127.209 0H158.209V65H127.209V0ZM128.209 23V12H157.209V23H149.209V51H135.209V23H128.209Z" fill="#2FA8D5"/>
<path fill-rule="evenodd" clip-rule="evenodd" d="M247.209 70H0.999921V69H247.209V70Z" fill="#30A9D6"/>
</svg>
